<svg width="16" height="15" viewBox="0 0 16 15" fill="none" xmlns="http://www.w3.org/2000/svg">
<path d="M3.625 0C2.7962 0 2.00134 0.32924 1.41529 0.915291C0.82924 1.50134 0.5 2.2962 0.5 3.125V11.875C0.5 12.7038 0.82924 13.4987 1.41529 14.0847C2.00134 14.6708 2.7962 15 3.625 15H12.375C13.2038 15 13.9987 14.6708 14.5847 14.0847C15.1708 13.4987 15.5 12.7038 15.5 11.875V3.125C15.5 2.2962 15.1708 1.50134 14.5847 0.915291C13.9987 0.32924 13.2038 0 12.375 0H3.625ZM11.5675 6.0675L7.1925 10.4425C7.13444 10.5007 7.06547 10.5469 6.98954 10.5784C6.91361 10.6099 6.83221 10.6261 6.75 10.6261C6.66779 10.6261 6.58639 10.6099 6.51046 10.5784C6.43453 10.5469 6.36556 10.5007 6.3075 10.4425L4.4325 8.5675C4.37439 8.50939 4.32829 8.4404 4.29685 8.36448C4.2654 8.28856 4.24921 8.20718 4.24921 8.125C4.24921 8.04282 4.2654 7.96144 4.29685 7.88552C4.32829 7.8096 4.37439 7.74061 4.4325 7.6825C4.54986 7.56514 4.70903 7.49921 4.875 7.49921C4.95718 7.49921 5.03856 7.5154 5.11448 7.54685C5.1904 7.57829 5.25939 7.62439 5.3175 7.6825L6.75 9.11625L10.6825 5.1825C10.7999 5.06514 10.959 4.99921 11.125 4.99921C11.291 4.99921 11.4501 5.06514 11.5675 5.1825C11.6849 5.29986 11.7508 5.45903 11.7508 5.625C11.7508 5.79097 11.6849 5.95014 11.5675 6.0675Z" fill="#3ED16A"/>
</svg>
