<svg width="16" height="18" viewBox="0 0 16 18" fill="none" xmlns="http://www.w3.org/2000/svg">
<path d="M2.25 0C1.65326 0 1.08097 0.237053 0.65901 0.65901C0.237053 1.08097 0 1.65326 0 2.25V15.75C0 16.3467 0.237053 16.919 0.65901 17.341C1.08097 17.7629 1.65326 18 2.25 18H4.75C5.34674 18 5.91903 17.7629 6.34099 17.341C6.76295 16.919 7 16.3467 7 15.75V2.25C7 1.65326 6.76295 1.08097 6.34099 0.65901C5.91903 0.237053 5.34674 0 4.75 0H2.25ZM11.25 0C10.6533 0 10.081 0.237053 9.65901 0.65901C9.23705 1.08097 9 1.65326 9 2.25V15.75C9 16.3467 9.23705 16.919 9.65901 17.341C10.081 17.7629 10.6533 18 11.25 18H13.75C14.0455 18 14.3381 17.9418 14.611 17.8287C14.884 17.7157 15.1321 17.5499 15.341 17.341C15.5499 17.1321 15.7157 16.884 15.8287 16.611C15.9418 16.3381 16 16.0455 16 15.75V2.25C16 1.95453 15.9418 1.66194 15.8287 1.38896C15.7157 1.11598 15.5499 0.867941 15.341 0.65901C15.1321 0.450078 14.884 0.284344 14.611 0.171271C14.3381 0.058198 14.0455 0 13.75 0H11.25Z" fill="#FED33D"/>
</svg>
